<svg preserveAspectRatio="none" width="100%" height="100%" overflow="visible" style="display: block;" viewBox="0 0 225.5 131.5" fill="none" xmlns="http://www.w3.org/2000/svg">
<g id="Group">
<path id="Vector" d="M112.75 56.75C128.214 56.75 140.75 44.214 140.75 28.75C140.75 13.286 128.214 0.75 112.75 0.75C97.286 0.75 84.75 13.286 84.75 28.75C84.75 44.214 97.286 56.75 112.75 56.75Z" stroke="#D8CFC2" stroke-width="1.5" stroke-dasharray="5 4"/>
<path id="Vector_2" d="M22.75 130.75C34.9003 130.75 44.75 120.9 44.75 108.75C44.75 96.5997 34.9003 86.75 22.75 86.75C10.5997 86.75 0.75 96.5997 0.75 108.75C0.75 120.9 10.5997 130.75 22.75 130.75Z" stroke="#D8CFC2" stroke-width="1.5" stroke-dasharray="5 4"/>
<path id="Vector_3" d="M202.75 130.75C214.9 130.75 224.75 120.9 224.75 108.75C224.75 96.5997 214.9 86.75 202.75 86.75C190.6 86.75 180.75 96.5997 180.75 108.75C180.75 120.9 190.6 130.75 202.75 130.75Z" stroke="#D8CFC2" stroke-width="1.5" stroke-dasharray="5 4"/>
<path id="Vector_4" d="M112.75 56.75L32.75 88.75" stroke="#D8CFC2" stroke-width="1.5" stroke-dasharray="5 4"/>
<path id="Vector_5" d="M112.75 56.75L192.75 88.75" stroke="#D8CFC2" stroke-width="1.5" stroke-dasharray="5 4"/>
</g>
</svg>
